<svg width="604" height="614" viewBox="0 0 604 614" fill="none" xmlns="http://www.w3.org/2000/svg">
<path d="M361.586 543.457C493.163 505.024 572.214 367.789 538.153 236.934C504.092 106.079 369.817 31.1556 238.24 69.5881C106.664 108.021 27.612 245.255 61.6731 376.111C95.7341 506.966 230.01 581.889 361.586 543.457Z" fill="#A66E38" stroke="#A66E38" stroke-width="1.37982"/>
<path d="M230.833 130.478C250.928 130.519 315.36 125.019 315.36 125.019C315.36 125.019 322.542 137.695 321.922 142.603C321.2 148.312 318.26 151.852 309.571 154.146C262.306 154.762 227.691 158.762 198.3 198.991C184.275 218.608 170.637 238.542 170.637 238.542L174.528 237.904C174.528 237.904 201.105 207.034 204.555 201.486C208.006 195.937 232.108 175.82 242.417 177.235C252.725 178.65 255.496 186.127 255.496 186.127C255.496 186.127 242.431 197.731 235.734 203.606C217.566 231.723 211.432 254.513 201.329 285.018C197.435 296.079 192.604 302.928 186.751 308.143C171.944 321.337 149.286 329.494 149.286 329.494C149.286 329.494 78.2444 355.966 62.4232 370.059L32.0464 336.282L38.3351 298.899C30.1143 295.238 108.383 248.47 108.383 248.47C108.383 248.47 166.482 174.839 173.706 165.932C182.855 154.651 197.296 141.17 197.296 141.17C206.422 139.146 215.542 130.447 230.833 130.478Z" fill="#EEB784"/>
<path d="M128.353 360.763C128.353 360.763 192.3 336.815 214.117 306.564C233.539 279.634 200.624 218.641 282.555 179.742C321.936 166.38 354.973 154.78 392.703 174.009C407.525 181.871 423.102 200.094 430.324 213.76C501.533 361.528 331.025 384.142 326.014 388.463C319.51 391.835 323.515 394.886 316.402 403.742C300.969 422.957 223.827 442.485 211.082 440.402C176.257 434.71 154.662 417.782 142.108 400.98C127.573 381.527 125.156 362.24 128.353 360.763Z" fill="#EEB784" stroke="#734C28" stroke-width="1.37953"/>
<path d="M345.883 211.094C346.92 218.498 351.03 225.069 353.724 231.875C364.666 259.512 347.148 218.701 359.259 245.571C360.096 247.429 360.671 249.408 361.565 251.239C363.442 255.082 365.551 258.801 367.561 262.574C369.642 266.481 372.406 270.017 374.479 273.908C374.875 274.653 375.094 275.483 375.401 276.27C376.016 277.057 376.74 277.767 377.246 278.631C377.672 279.358 377.709 280.287 378.168 280.993C379.236 282.633 386.811 290.13 388.315 290.438C389.626 290.706 396.238 290.819 397.539 290.438C399.409 289.891 401.287 289.334 403.074 288.549C403.473 288.374 403.589 287.761 403.996 287.604C404.871 287.269 405.888 287.469 406.763 287.131C407.291 286.929 407.653 286.052 408.147 285.715C408.719 285.324 409.442 285.192 409.992 284.77C411.657 283.491 412.813 281.636 414.143 280.047C414.992 279.032 416.187 278.325 416.91 277.213C418.247 275.16 418.74 272.842 419.678 270.601C420.084 269.63 420.715 268.762 421.061 267.767C423.457 260.9 423.367 253.68 423.367 246.514C423.367 243.996 423.693 241.455 423.367 238.958C423.219 237.821 422.74 236.758 422.446 235.652C421.709 232.888 420.849 228.126 419.217 225.262C415.143 218.11 402.554 210.301 396.156 206.37" fill="#EEB784"/>
<path d="M345.883 211.094C346.92 218.498 351.03 225.069 353.724 231.875C364.666 259.512 347.148 218.701 359.259 245.571C360.096 247.429 360.671 249.408 361.565 251.239C363.442 255.082 365.551 258.801 367.561 262.574C369.642 266.481 372.406 270.017 374.479 273.908C374.875 274.653 375.094 275.483 375.401 276.27C376.016 277.057 376.74 277.767 377.246 278.631C377.672 279.358 377.709 280.287 378.168 280.993C379.236 282.633 386.811 290.13 388.315 290.438C389.626 290.706 396.238 290.819 397.539 290.438C399.409 289.891 401.287 289.334 403.074 288.549C403.473 288.374 403.589 287.761 403.996 287.604C404.871 287.269 405.888 287.469 406.763 287.131C407.291 286.929 407.653 286.052 408.147 285.715C408.719 285.324 409.442 285.192 409.992 284.77C411.657 283.491 412.813 281.636 414.143 280.047C414.992 279.032 416.187 278.325 416.91 277.213C418.247 275.16 418.74 272.842 419.678 270.601C420.084 269.63 420.715 268.762 421.061 267.767C423.457 260.9 423.367 253.68 423.367 246.514C423.367 243.996 423.693 241.455 423.367 238.958C423.219 237.821 422.74 236.758 422.446 235.652C421.709 232.888 420.849 228.126 419.217 225.262C415.143 218.11 402.554 210.301 396.156 206.37" stroke="#EEB784" stroke-width="1.37953"/>
<path d="M285.237 521.798C306.639 521.798 323.989 504.182 323.989 482.452C323.989 460.722 306.639 443.106 285.237 443.106C263.836 443.106 246.486 460.722 246.486 482.452C246.486 504.182 263.836 521.798 285.237 521.798Z" fill="#734C28" stroke="#EEB784" stroke-width="9.44882"/>
<path d="M341.119 402.679L378.096 537.816C378.096 537.816 402.023 538.856 449.176 498.776C482.858 470.146 517.896 412.688 517.05 389.418C515.534 347.685 437.312 237.604 437.312 237.604L341.119 402.679Z" fill="#EEB784"/>
<path d="M318.022 421.196C253.211 351.662 306.569 138.766 413.045 156.23C466.894 165.061 512.021 221.066 518.985 253.181C524.441 278.346 382.834 490.73 318.022 421.196Z" fill="#734C28" stroke="#EEB784" stroke-width="9.44882"/>
</svg>
